<svg viewBox="0 0 24 24" fill="none" xmlns="http://www.w3.org/2000/svg"><g clip-path="url(#prefix__a)" fill="#000"><path fill-rule="evenodd" clip-rule="evenodd" d="M9 0a5.5 5.5 0 100 11A5.5 5.5 0 009 0zM5.5 5.5a3.5 3.5 0 117 0 3.5 3.5 0 01-7 0z"/><path d="M15.5 0a1 1 0 100 2 3.5 3.5 0 110 7 1 1 0 100 2 5.5 5.5 0 100-11zM19.084 14.016A1 1 0 0120.4 13.5 6.001 6.001 0 0124 19v2a1 1 0 11-2 0v-2c0-1.639-.985-3.05-2.4-3.668a1 1 0 01-.516-1.316zM6 13a6 6 0 00-6 6v2a1 1 0 102 0v-2a4 4 0 014-4h6a4 4 0 014 4v2a1 1 0 102 0v-2a6 6 0 00-6-6H6z"/></g><defs><clipPath id="prefix__a"><path fill="#fff" d="M0 0h24v24H0z"/></clipPath></defs></svg>